%TF.GenerationSoftware,KiCad,Pcbnew,(6.0.5)*%
%TF.CreationDate,2022-06-18T22:59:03-05:00*%
%TF.ProjectId,PB_8,50425f38-2e6b-4696-9361-645f70636258,v1*%
%TF.SameCoordinates,Original*%
%TF.FileFunction,Paste,Top*%
%TF.FilePolarity,Positive*%
%FSLAX46Y46*%
G04 Gerber Fmt 4.6, Leading zero omitted, Abs format (unit mm)*
G04 Created by KiCad (PCBNEW (6.0.5)) date 2022-06-18 22:59:03*
%MOMM*%
%LPD*%
G01*
G04 APERTURE LIST*
G04 Aperture macros list*
%AMRoundRect*
0 Rectangle with rounded corners*
0 $1 Rounding radius*
0 $2 $3 $4 $5 $6 $7 $8 $9 X,Y pos of 4 corners*
0 Add a 4 corners polygon primitive as box body*
4,1,4,$2,$3,$4,$5,$6,$7,$8,$9,$2,$3,0*
0 Add four circle primitives for the rounded corners*
1,1,$1+$1,$2,$3*
1,1,$1+$1,$4,$5*
1,1,$1+$1,$6,$7*
1,1,$1+$1,$8,$9*
0 Add four rect primitives between the rounded corners*
20,1,$1+$1,$2,$3,$4,$5,0*
20,1,$1+$1,$4,$5,$6,$7,0*
20,1,$1+$1,$6,$7,$8,$9,0*
20,1,$1+$1,$8,$9,$2,$3,0*%
G04 Aperture macros list end*
%ADD10RoundRect,0.237500X0.250000X0.237500X-0.250000X0.237500X-0.250000X-0.237500X0.250000X-0.237500X0*%
%ADD11RoundRect,0.250000X-0.450000X0.325000X-0.450000X-0.325000X0.450000X-0.325000X0.450000X0.325000X0*%
%ADD12RoundRect,0.237500X-0.237500X0.250000X-0.237500X-0.250000X0.237500X-0.250000X0.237500X0.250000X0*%
%ADD13RoundRect,0.237500X0.237500X-0.300000X0.237500X0.300000X-0.237500X0.300000X-0.237500X-0.300000X0*%
%ADD14R,0.600000X1.050000*%
%ADD15RoundRect,0.150000X-0.150000X0.825000X-0.150000X-0.825000X0.150000X-0.825000X0.150000X0.825000X0*%
%ADD16RoundRect,0.250000X1.500000X0.550000X-1.500000X0.550000X-1.500000X-0.550000X1.500000X-0.550000X0*%
%ADD17RoundRect,0.237500X0.237500X-0.287500X0.237500X0.287500X-0.237500X0.287500X-0.237500X-0.287500X0*%
%ADD18RoundRect,0.237500X0.237500X-0.250000X0.237500X0.250000X-0.237500X0.250000X-0.237500X-0.250000X0*%
%ADD19R,1.200000X0.900000*%
%ADD20RoundRect,0.237500X-0.300000X-0.237500X0.300000X-0.237500X0.300000X0.237500X-0.300000X0.237500X0*%
%ADD21R,0.558800X2.159000*%
%ADD22RoundRect,0.237500X-0.237500X0.300000X-0.237500X-0.300000X0.237500X-0.300000X0.237500X0.300000X0*%
%ADD23R,0.900000X1.200000*%
%ADD24R,0.800000X0.900000*%
%ADD25RoundRect,0.237500X-0.250000X-0.237500X0.250000X-0.237500X0.250000X0.237500X-0.250000X0.237500X0*%
%ADD26R,0.650000X1.560000*%
%ADD27R,1.300000X1.550000*%
%ADD28RoundRect,0.150000X0.825000X0.150000X-0.825000X0.150000X-0.825000X-0.150000X0.825000X-0.150000X0*%
%ADD29RoundRect,0.237500X-0.237500X0.287500X-0.237500X-0.287500X0.237500X-0.287500X0.237500X0.287500X0*%
G04 APERTURE END LIST*
D10*
%TO.C,R29*%
X189161300Y-77502600D03*
X187336300Y-77502600D03*
%TD*%
D11*
%TO.C,FB1*%
X193302600Y-71145700D03*
X193302600Y-73195700D03*
%TD*%
D12*
%TO.C,R30*%
X189759800Y-70757800D03*
X189759800Y-72582800D03*
%TD*%
D13*
%TO.C,C9*%
X195148800Y-73165100D03*
X195148800Y-71440100D03*
%TD*%
D14*
%TO.C,U8*%
X192792600Y-74816100D03*
X191842600Y-74816100D03*
X190892600Y-74816100D03*
X190892600Y-77516100D03*
X192792600Y-77516100D03*
%TD*%
D13*
%TO.C,C3*%
X157698800Y-77265100D03*
X157698800Y-75540100D03*
%TD*%
D10*
%TO.C,R6*%
X150161300Y-75202600D03*
X148336300Y-75202600D03*
%TD*%
D15*
%TO.C,U2*%
X155926000Y-72264100D03*
X154656000Y-72264100D03*
X153386000Y-72264100D03*
X152116000Y-72264100D03*
X152116000Y-77214100D03*
X153386000Y-77214100D03*
X154656000Y-77214100D03*
X155926000Y-77214100D03*
%TD*%
D10*
%TO.C,R5*%
X150161300Y-77202600D03*
X148336300Y-77202600D03*
%TD*%
D16*
%TO.C,C2*%
X191578800Y-96052600D03*
X186178800Y-96052600D03*
%TD*%
D17*
%TO.C,D3*%
X212773800Y-85627600D03*
X212773800Y-83877600D03*
%TD*%
D18*
%TO.C,R3*%
X212748800Y-89915100D03*
X212748800Y-88090100D03*
%TD*%
D19*
%TO.C,D5*%
X187123800Y-85527600D03*
X187123800Y-88827600D03*
%TD*%
D20*
%TO.C,C4*%
X182336300Y-65284800D03*
X184061300Y-65284800D03*
%TD*%
D21*
%TO.C,U5*%
X181184800Y-98274300D03*
X179914800Y-98274300D03*
X178644800Y-98274300D03*
X177374800Y-98274300D03*
X176104800Y-98274300D03*
X174834800Y-98274300D03*
X173564800Y-98274300D03*
X172294800Y-98274300D03*
X171024800Y-98274300D03*
X169754800Y-98274300D03*
X169754800Y-105030700D03*
X171024800Y-105030700D03*
X172294800Y-105030700D03*
X173564800Y-105030700D03*
X174834800Y-105030700D03*
X176104800Y-105030700D03*
X177374800Y-105030700D03*
X178644800Y-105030700D03*
X179914800Y-105030700D03*
X181184800Y-105030700D03*
%TD*%
D22*
%TO.C,C6*%
X183498800Y-100827600D03*
X183498800Y-102552600D03*
%TD*%
D23*
%TO.C,D4*%
X203928800Y-107152600D03*
X207228800Y-107152600D03*
%TD*%
D24*
%TO.C,Q1*%
X205828800Y-109052600D03*
X203928800Y-109052600D03*
X204878800Y-111052600D03*
%TD*%
D25*
%TO.C,R4*%
X204436300Y-104852600D03*
X206261300Y-104852600D03*
%TD*%
D26*
%TO.C,U9*%
X202318800Y-61292600D03*
X201368800Y-61292600D03*
X200418800Y-61292600D03*
X200418800Y-63992600D03*
X201368800Y-63992600D03*
X202318800Y-63992600D03*
%TD*%
D27*
%TO.C,SW1*%
X200248800Y-72182600D03*
X200248800Y-80132600D03*
X204748800Y-80132600D03*
X204748800Y-72182600D03*
%TD*%
%TO.C,SW2*%
X208398800Y-72182600D03*
X208398800Y-80132600D03*
X212898800Y-72182600D03*
X212898800Y-80132600D03*
%TD*%
D25*
%TO.C,R22*%
X190536300Y-109452600D03*
X192361300Y-109452600D03*
%TD*%
D10*
%TO.C,R15*%
X158661300Y-109452600D03*
X156836300Y-109452600D03*
%TD*%
D20*
%TO.C,C5*%
X134273800Y-110202600D03*
X135998800Y-110202600D03*
%TD*%
D25*
%TO.C,R20*%
X181586300Y-109452600D03*
X183411300Y-109452600D03*
%TD*%
D10*
%TO.C,R16*%
X165111300Y-109452600D03*
X163286300Y-109452600D03*
%TD*%
D18*
%TO.C,R8*%
X142523800Y-107540100D03*
X142523800Y-105715100D03*
%TD*%
D10*
%TO.C,R17*%
X170561300Y-109452600D03*
X168736300Y-109452600D03*
%TD*%
D25*
%TO.C,R19*%
X177136300Y-109452600D03*
X178961300Y-109452600D03*
%TD*%
D28*
%TO.C,U4*%
X139198800Y-108472600D03*
X139198800Y-107202600D03*
X139198800Y-105932600D03*
X139198800Y-104662600D03*
X139198800Y-103392600D03*
X139198800Y-102122600D03*
X139198800Y-100852600D03*
X139198800Y-99582600D03*
X134248800Y-99582600D03*
X134248800Y-100852600D03*
X134248800Y-102122600D03*
X134248800Y-103392600D03*
X134248800Y-104662600D03*
X134248800Y-105932600D03*
X134248800Y-107202600D03*
X134248800Y-108472600D03*
%TD*%
D29*
%TO.C,D1*%
X206320600Y-125359600D03*
X206320600Y-127109600D03*
%TD*%
D12*
%TO.C,R2*%
X131198800Y-104402600D03*
X131198800Y-106227600D03*
%TD*%
D25*
%TO.C,R21*%
X185836300Y-109452600D03*
X187661300Y-109452600D03*
%TD*%
D18*
%TO.C,R7*%
X142523800Y-103740100D03*
X142523800Y-101915100D03*
%TD*%
D25*
%TO.C,R18*%
X172786300Y-109452600D03*
X174611300Y-109452600D03*
%TD*%
D12*
%TO.C,R9*%
X131198800Y-100515100D03*
X131198800Y-102340100D03*
%TD*%
%TO.C,R1*%
X206320600Y-129741700D03*
X206320600Y-131566700D03*
%TD*%
M02*
