M48
; DRILL file {KiCad (6.0.5)} date Sat Jun 18 16:05:53 2022
; FORMAT={-:-/ absolute / inch / decimal}
; #@! TF.CreationDate,2022-06-18T16:05:53-05:00
; #@! TF.GenerationSoftware,Kicad,Pcbnew,(6.0.5)
; #@! TF.FileFunction,Plated,1,2,PTH
FMAT,2
INCH
; #@! TA.AperFunction,Plated,PTH,ViaDrill
T1C0.0157
; #@! TA.AperFunction,Plated,PTH,ComponentDrill
T2C0.0300
; #@! TA.AperFunction,Plated,PTH,ComponentDrill
T3C0.0354
; #@! TA.AperFunction,Plated,PTH,ComponentDrill
T4C0.0374
; #@! TA.AperFunction,Plated,PTH,ComponentDrill
T5C0.0394
; #@! TA.AperFunction,Plated,PTH,ComponentDrill
T6C0.0433
; #@! TA.AperFunction,Plated,PTH,ComponentDrill
T7C0.0472
; #@! TA.AperFunction,Plated,PTH,ComponentDrill
T8C0.0512
; #@! TA.AperFunction,Plated,PTH,ComponentDrill
T9C0.0650
; #@! TA.AperFunction,Plated,PTH,ComponentDrill
T10C0.0669
%
G90
G05
T1
X5.1055Y-2.1281
X5.1102Y-2.4017
X5.1338Y-5.9607
X5.1496Y-4.7796
X5.1496Y-5.4489
X5.1578Y-3.019
X5.1811Y-4.1714
X5.2259Y-3.2737
X5.2397Y-3.669
X5.2459Y-3.5651
X5.259Y-2.9808
X5.2767Y-2.5781
X5.2937Y-3.4603
X5.3917Y-3.2517
X5.3968Y-4.0375
X5.4283Y-2.5021
X5.4295Y-2.8454
X5.4598Y-3.5048
X5.4752Y-3.1903
X5.5031Y-2.4745
X5.5118Y-2.3942
X5.5401Y-3.7261
X5.5748Y-5.9607
X5.5972Y-3.0159
X5.6181Y-3.7493
X5.6409Y-3.4981
X5.6433Y-2.1308
X5.6594Y-4.3289
X5.6614Y-2.2659
X5.6889Y-2.8328
X5.6929Y-2.519
X5.6968Y-3.495
X5.7051Y-3.4198
X5.7407Y-3.8558
X5.7464Y-2.3588
X5.7474Y-2.8037
X5.7476Y-2.4859
X5.7669Y-3.758
X5.7693Y-3.1942
X5.7728Y-4.6241
X5.8169Y-2.8131
X5.8716Y-3.7922
X5.8759Y-2.9027
X5.9033Y-4.0431
X5.9252Y-2.8131
X5.9381Y-2.4247
X5.9559Y-3.8107
X5.9622Y-3.3887
X5.9637Y-4.4588
X5.9921Y-2.9155
X6.0307Y-3.8355
X6.0649Y-2.9174
X6.0807Y-4.3013
X6.0893Y-2.9667
X6.1334Y-2.2871
X6.1383Y-2.9193
X6.1389Y-4.1753
X6.1626Y-3.8989
X6.1763Y-4.9765
X6.1898Y-2.8441
X6.2063Y-3.3875
X6.2086Y-2.9194
X6.2275Y-3.1084
X6.257Y-3.7926
X6.2618Y-2.9706
X6.2826Y-4.0375
X6.2861Y-3.9797
X6.3385Y-4.3052
X6.3555Y-2.4189
X6.3889Y-2.8092
X6.3929Y-2.9824
X6.4271Y-4.3741
X6.447Y-2.7993
X6.4803Y-3.3855
X6.4992Y-2.3407
X6.5078Y-2.2533
X6.5149Y-2.8131
X6.5228Y-2.4273
X6.5822Y-3.4651
X6.5944Y-4.1615
X6.6007Y-4.0394
X6.6141Y-3.8697
X6.6385Y-2.1489
X6.6529Y-3.7883
X6.6539Y-2.8047
X6.6909Y-4.3722
X6.7039Y-2.3407
X6.7072Y-3.7529
X6.7078Y-2.254
X6.7405Y-3.5029
X6.7567Y-3.74
X6.759Y-4.9765
X6.8007Y-2.8194
X6.8148Y-2.4121
X6.8486Y-3.7948
X6.8587Y-3.73
X6.8661Y-3.0257
X6.8956Y-2.8977
X6.9098Y-2.7439
X6.9232Y-4.3741
X6.9311Y-4.7718
X6.9838Y-3.5025
X6.9853Y-3.7948
X6.996Y-2.9706
X7.0311Y-4.0449
X7.0313Y-3.7257
X7.0457Y-2.3841
X7.0748Y-3.2324
X7.0793Y-4.0437
X7.0867Y-2.7555
X7.1011Y-2.8718
X7.1193Y-2.1245
X7.137Y-3.5611
X7.137Y-3.7659
X7.196Y-3.8918
X7.1988Y-4.1773
X7.2067Y-3.1418
X7.2236Y-3.7816
X7.232Y-4.1013
X7.2441Y-4.382
X7.2492Y-2.8249
X7.2559Y-3.3367
X7.2567Y-2.2105
X7.262Y-2.6263
X7.2883Y-3.5031
X7.2937Y-3.0355
X7.2963Y-4.0485
X7.3131Y-2.5793
X7.3299Y-3.7068
X7.3299Y-3.8564
X7.3444Y-3.444
X7.3494Y-2.9919
X7.3614Y-4.9548
X7.3671Y-3.5513
X7.3693Y-2.384
X7.3828Y-3.194
X7.4074Y-4.382
X7.4281Y-3.2029
X7.4437Y-3.7072
X7.4684Y-3.2766
X7.4685Y-3.2196
X7.4829Y-2.2119
X7.4842Y-4.76
X7.4862Y-4.4647
X7.4874Y-4.2068
X7.5307Y-2.6241
X7.5307Y-4.0336
X7.5356Y-2.8847
X7.5395Y-2.8374
X7.562Y-2.1245
X7.6153Y-3.9096
X7.6299Y-4.3722
X7.6299Y-5.2127
X7.637Y-4.1635
X7.6506Y-3.5985
X7.6535Y-3.132
X7.6555Y-3.1714
X7.6583Y-3.2106
X7.6681Y-3.2487
X7.6732Y-5.4324
X7.6881Y-5.5533
X7.6881Y-5.9076
X7.7322Y-3.3844
X7.759Y-4.38
X7.8063Y-5.9076
X7.8102Y-4.0808
X7.812Y-3.4942
X7.8602Y-2.5867
X7.8819Y-4.8111
X7.8889Y-4.9194
X7.9244Y-5.5533
X7.9244Y-5.9076
X7.9267Y-2.3505
X7.9409Y-3.5985
X7.9492Y-3.1304
X7.9527Y-5.4352
X7.9559Y-4.38
X7.9665Y-3.3899
X7.9756Y-3.2462
X7.9941Y-2.8424
X7.998Y-4.1281
X8.0149Y-3.9509
X8.0228Y-5.2816
X8.0237Y-3.7601
X8.0307Y-4.9273
X8.0492Y-4.0749
X8.0582Y-4.7186
X8.063Y-2.7755
X8.0661Y-4.4824
X8.0819Y-5.8682
X8.1059Y-4.2199
X8.1224Y-3.1611
X8.1239Y-4.8569
X8.1358Y-2.9145
X8.1535Y-3.0503
X8.1842Y-4.4627
X8.1889Y-5.3623
X8.2Y-5.8682
X8.2059Y-3.8699
X8.2067Y-2.7747
X8.2159Y-4.2299
X8.2177Y-5.0966
X8.2196Y-4.9253
X8.2598Y-3.0826
X8.2759Y-4.0299
X8.2759Y-4.1899
X8.2905Y-4.4155
X8.3023Y-4.7422
X8.3181Y-5.4745
X8.3181Y-5.5926
X8.3181Y-5.8682
X8.3185Y-2.8416
X8.322Y-3.1625
X8.3771Y-2.5808
X8.3779Y-3.5926
X8.3815Y-2.9135
X8.3819Y-3.0857
X8.385Y-5.0867
X8.387Y-2.7639
X8.3909Y-3.8682
X8.3929Y-2.4076
T2
X8.1192Y-3.2573
X8.1192Y-3.3634
X8.1192Y-3.4695
X8.1192Y-3.5756
X8.2692Y-3.2664
X8.2692Y-3.3664
X8.2692Y-3.4664
X8.2692Y-3.5664
T3
X5.3473Y-2.5699
X5.3473Y-2.6699
X5.3473Y-3.5699
X5.3473Y-3.6699
X5.4473Y-2.5699
X5.4473Y-2.6699
X5.4473Y-3.5699
X5.4473Y-3.6699
X5.5473Y-2.5699
X5.5473Y-2.6699
X5.5473Y-3.5699
X5.5473Y-3.6699
X5.6473Y-2.5699
X5.6473Y-2.6699
X5.6473Y-3.5699
X5.6473Y-3.6699
X5.7473Y-2.5699
X5.7473Y-2.6699
X5.7473Y-3.5699
X5.7473Y-3.6699
X5.8473Y-2.5699
X5.8473Y-2.6699
X5.8473Y-3.5699
X5.8473Y-3.6699
X5.9473Y-2.5699
X5.9473Y-2.6699
X5.9473Y-3.5699
X5.9473Y-3.6699
X6.0473Y-2.5699
X6.0473Y-2.6699
X6.0473Y-3.5699
X6.0473Y-3.6699
X6.1473Y-2.5699
X6.1473Y-2.6699
X6.1473Y-3.5699
X6.1473Y-3.6699
X6.2362Y-2.1643
X6.2362Y-2.2942
X6.2473Y-2.5699
X6.2473Y-2.6699
X6.2473Y-3.5699
X6.2473Y-3.6699
X6.3346Y-2.1643
X6.3346Y-2.2942
X6.3473Y-2.5699
X6.3473Y-2.6699
X6.3473Y-3.5699
X6.3473Y-3.6699
X6.433Y-2.1643
X6.433Y-2.2942
X6.4473Y-2.5699
X6.4473Y-2.6699
X6.4473Y-3.5699
X6.4473Y-3.6699
X6.5473Y-2.5699
X6.5473Y-2.6699
X6.5473Y-3.5699
X6.5473Y-3.6699
X6.6473Y-2.5699
X6.6473Y-2.6699
X6.6473Y-3.5699
X6.6473Y-3.6699
X6.7473Y-2.5699
X6.7473Y-2.6699
X6.7473Y-3.5699
X6.7473Y-3.6699
X6.8473Y-2.5699
X6.8473Y-2.6699
X6.8473Y-3.5699
X6.8473Y-3.6699
X6.9473Y-2.5699
X6.9473Y-2.6699
X6.9473Y-3.5699
X6.9473Y-3.6699
X7.0473Y-2.5699
X7.0473Y-2.6699
X7.0473Y-3.5699
X7.0473Y-3.6699
X7.7639Y-2.2843
X7.7639Y-2.3827
X7.7639Y-2.4614
X7.7639Y-2.5599
T4
X8.0221Y-2.1993
X8.1205Y-2.1993
X8.2189Y-2.1993
X8.3173Y-2.1993
T5
X5.7558Y-2.19
X5.8558Y-2.19
X5.9558Y-2.19
X6.0558Y-2.19
X6.7806Y-2.19
X6.8806Y-2.19
X6.9806Y-2.19
X7.0806Y-2.19
X7.1806Y-2.19
X7.5692Y-3.3164
X7.5692Y-3.4164
X7.5692Y-3.5164
X7.7204Y-4.2206
X7.7433Y-3.8872
X7.8204Y-4.2206
X7.9204Y-4.2206
X7.9401Y-3.8872
X8.3574Y-4.1659
X8.3574Y-4.2659
X8.3574Y-4.3659
T6
X8.2767Y-3.7657
X8.2767Y-3.9157
T7
X5.8701Y-4.5906
X5.8701Y-5.1024
X6.0079Y-4.5906
X6.0079Y-5.1024
X6.1457Y-4.5906
X6.1457Y-5.1024
X6.4606Y-4.5906
X6.4606Y-5.1024
X6.5984Y-4.5906
X6.5984Y-5.1024
X6.7362Y-4.5906
X6.7362Y-5.1024
X7.0512Y-4.5906
X7.0512Y-5.1024
X7.189Y-4.5906
X7.189Y-5.1024
X7.3268Y-4.5906
X7.3268Y-5.1024
X7.6417Y-4.5906
X7.6417Y-5.1024
X7.7795Y-4.5906
X7.7795Y-5.1024
X7.9173Y-4.5906
X7.9173Y-5.1024
T9
X5.7637Y-5.4529
X5.7637Y-5.5985
X5.7637Y-5.7757
X5.7637Y-5.9214
X6.0094Y-5.4488
X6.0094Y-5.5944
X6.0094Y-5.7716
X6.0094Y-5.9173
X6.2577Y-5.4488
X6.2577Y-5.5944
X6.2577Y-5.7716
X6.2577Y-5.9173
X6.506Y-5.4486
X6.506Y-5.5943
X6.506Y-5.7714
X6.506Y-5.9171
X6.7543Y-5.4513
X6.7543Y-5.597
X6.7543Y-5.7742
X6.7543Y-5.9198
X7.0026Y-5.4513
X7.0026Y-5.597
X7.0026Y-5.7742
X7.0026Y-5.9198
X7.2509Y-5.4513
X7.2509Y-5.597
X7.2509Y-5.7742
X7.2509Y-5.9198
X7.4992Y-5.4513
X7.4992Y-5.597
X7.4992Y-5.7742
X7.4992Y-5.9198
X8.3239Y-4.8387
X8.3239Y-4.9844
X8.3239Y-5.1615
X8.3239Y-5.3072
T10
X7.8299Y-5.6989
X8.2039Y-5.6989
T8
G00X7.5757Y-2.4418
M15
G01X7.5757Y-2.4024
M16
G05
G00X7.7206Y-2.1634
M15
G01X7.7599Y-2.1634
M16
G05
G00X7.7599Y-2.6807
M15
G01X7.7206Y-2.6807
M16
G05
T0
M30
