%TF.GenerationSoftware,KiCad,Pcbnew,(6.0.5)*%
%TF.CreationDate,2022-06-18T22:59:03-05:00*%
%TF.ProjectId,PB_8,50425f38-2e6b-4696-9361-645f70636258,v1*%
%TF.SameCoordinates,Original*%
%TF.FileFunction,Other,Comment*%
%FSLAX46Y46*%
G04 Gerber Fmt 4.6, Leading zero omitted, Abs format (unit mm)*
G04 Created by KiCad (PCBNEW (6.0.5)) date 2022-06-18 22:59:03*
%MOMM*%
%LPD*%
G01*
G04 APERTURE LIST*
%ADD10C,0.002000*%
G04 APERTURE END LIST*
D10*
%TO.C,U5*%
X175515157Y-104298333D02*
X175521204Y-104304380D01*
X175527252Y-104322523D01*
X175527252Y-104334619D01*
X175521204Y-104352761D01*
X175509109Y-104364857D01*
X175497014Y-104370904D01*
X175472823Y-104376952D01*
X175454680Y-104376952D01*
X175430490Y-104370904D01*
X175418395Y-104364857D01*
X175406300Y-104352761D01*
X175400252Y-104334619D01*
X175400252Y-104322523D01*
X175406300Y-104304380D01*
X175412347Y-104298333D01*
X175527252Y-104225761D02*
X175521204Y-104237857D01*
X175515157Y-104243904D01*
X175503061Y-104249952D01*
X175466776Y-104249952D01*
X175454680Y-104243904D01*
X175448633Y-104237857D01*
X175442585Y-104225761D01*
X175442585Y-104207619D01*
X175448633Y-104195523D01*
X175454680Y-104189476D01*
X175466776Y-104183428D01*
X175503061Y-104183428D01*
X175515157Y-104189476D01*
X175521204Y-104195523D01*
X175527252Y-104207619D01*
X175527252Y-104225761D01*
X175442585Y-104129000D02*
X175569585Y-104129000D01*
X175448633Y-104129000D02*
X175442585Y-104116904D01*
X175442585Y-104092714D01*
X175448633Y-104080619D01*
X175454680Y-104074571D01*
X175466776Y-104068523D01*
X175503061Y-104068523D01*
X175515157Y-104074571D01*
X175521204Y-104080619D01*
X175527252Y-104092714D01*
X175527252Y-104116904D01*
X175521204Y-104129000D01*
X175442585Y-104026190D02*
X175527252Y-103995952D01*
X175442585Y-103965714D02*
X175527252Y-103995952D01*
X175557490Y-104008047D01*
X175563538Y-104014095D01*
X175569585Y-104026190D01*
X175527252Y-103917333D02*
X175442585Y-103917333D01*
X175466776Y-103917333D02*
X175454680Y-103911285D01*
X175448633Y-103905238D01*
X175442585Y-103893142D01*
X175442585Y-103881047D01*
X175527252Y-103838714D02*
X175442585Y-103838714D01*
X175400252Y-103838714D02*
X175406300Y-103844761D01*
X175412347Y-103838714D01*
X175406300Y-103832666D01*
X175400252Y-103838714D01*
X175412347Y-103838714D01*
X175442585Y-103723809D02*
X175545395Y-103723809D01*
X175557490Y-103729857D01*
X175563538Y-103735904D01*
X175569585Y-103748000D01*
X175569585Y-103766142D01*
X175563538Y-103778238D01*
X175521204Y-103723809D02*
X175527252Y-103735904D01*
X175527252Y-103760095D01*
X175521204Y-103772190D01*
X175515157Y-103778238D01*
X175503061Y-103784285D01*
X175466776Y-103784285D01*
X175454680Y-103778238D01*
X175448633Y-103772190D01*
X175442585Y-103760095D01*
X175442585Y-103735904D01*
X175448633Y-103723809D01*
X175527252Y-103663333D02*
X175400252Y-103663333D01*
X175527252Y-103608904D02*
X175460728Y-103608904D01*
X175448633Y-103614952D01*
X175442585Y-103627047D01*
X175442585Y-103645190D01*
X175448633Y-103657285D01*
X175454680Y-103663333D01*
X175442585Y-103566571D02*
X175442585Y-103518190D01*
X175400252Y-103548428D02*
X175509109Y-103548428D01*
X175521204Y-103542380D01*
X175527252Y-103530285D01*
X175527252Y-103518190D01*
X175412347Y-103385142D02*
X175406300Y-103379095D01*
X175400252Y-103367000D01*
X175400252Y-103336761D01*
X175406300Y-103324666D01*
X175412347Y-103318619D01*
X175424442Y-103312571D01*
X175436538Y-103312571D01*
X175454680Y-103318619D01*
X175527252Y-103391190D01*
X175527252Y-103312571D01*
X175400252Y-103233952D02*
X175400252Y-103221857D01*
X175406300Y-103209761D01*
X175412347Y-103203714D01*
X175424442Y-103197666D01*
X175448633Y-103191619D01*
X175478871Y-103191619D01*
X175503061Y-103197666D01*
X175515157Y-103203714D01*
X175521204Y-103209761D01*
X175527252Y-103221857D01*
X175527252Y-103233952D01*
X175521204Y-103246047D01*
X175515157Y-103252095D01*
X175503061Y-103258142D01*
X175478871Y-103264190D01*
X175448633Y-103264190D01*
X175424442Y-103258142D01*
X175412347Y-103252095D01*
X175406300Y-103246047D01*
X175400252Y-103233952D01*
X175527252Y-103070666D02*
X175527252Y-103143238D01*
X175527252Y-103106952D02*
X175400252Y-103106952D01*
X175418395Y-103119047D01*
X175430490Y-103131142D01*
X175436538Y-103143238D01*
X175400252Y-102961809D02*
X175400252Y-102986000D01*
X175406300Y-102998095D01*
X175412347Y-103004142D01*
X175430490Y-103016238D01*
X175454680Y-103022285D01*
X175503061Y-103022285D01*
X175515157Y-103016238D01*
X175521204Y-103010190D01*
X175527252Y-102998095D01*
X175527252Y-102973904D01*
X175521204Y-102961809D01*
X175515157Y-102955761D01*
X175503061Y-102949714D01*
X175472823Y-102949714D01*
X175460728Y-102955761D01*
X175454680Y-102961809D01*
X175448633Y-102973904D01*
X175448633Y-102998095D01*
X175454680Y-103010190D01*
X175460728Y-103016238D01*
X175472823Y-103022285D01*
X175490966Y-102804571D02*
X175490966Y-102744095D01*
X175527252Y-102816666D02*
X175400252Y-102774333D01*
X175527252Y-102732000D01*
X175521204Y-102635238D02*
X175527252Y-102647333D01*
X175527252Y-102671523D01*
X175521204Y-102683619D01*
X175515157Y-102689666D01*
X175503061Y-102695714D01*
X175466776Y-102695714D01*
X175454680Y-102689666D01*
X175448633Y-102683619D01*
X175442585Y-102671523D01*
X175442585Y-102647333D01*
X175448633Y-102635238D01*
X175521204Y-102526380D02*
X175527252Y-102538476D01*
X175527252Y-102562666D01*
X175521204Y-102574761D01*
X175515157Y-102580809D01*
X175503061Y-102586857D01*
X175466776Y-102586857D01*
X175454680Y-102580809D01*
X175448633Y-102574761D01*
X175442585Y-102562666D01*
X175442585Y-102538476D01*
X175448633Y-102526380D01*
X175521204Y-102423571D02*
X175527252Y-102435666D01*
X175527252Y-102459857D01*
X175521204Y-102471952D01*
X175509109Y-102478000D01*
X175460728Y-102478000D01*
X175448633Y-102471952D01*
X175442585Y-102459857D01*
X175442585Y-102435666D01*
X175448633Y-102423571D01*
X175460728Y-102417523D01*
X175472823Y-102417523D01*
X175484919Y-102478000D01*
X175527252Y-102344952D02*
X175521204Y-102357047D01*
X175509109Y-102363095D01*
X175400252Y-102363095D01*
X175521204Y-102248190D02*
X175527252Y-102260285D01*
X175527252Y-102284476D01*
X175521204Y-102296571D01*
X175509109Y-102302619D01*
X175460728Y-102302619D01*
X175448633Y-102296571D01*
X175442585Y-102284476D01*
X175442585Y-102260285D01*
X175448633Y-102248190D01*
X175460728Y-102242142D01*
X175472823Y-102242142D01*
X175484919Y-102302619D01*
X175527252Y-102187714D02*
X175442585Y-102187714D01*
X175466776Y-102187714D02*
X175454680Y-102181666D01*
X175448633Y-102175619D01*
X175442585Y-102163523D01*
X175442585Y-102151428D01*
X175527252Y-102054666D02*
X175460728Y-102054666D01*
X175448633Y-102060714D01*
X175442585Y-102072809D01*
X175442585Y-102097000D01*
X175448633Y-102109095D01*
X175521204Y-102054666D02*
X175527252Y-102066761D01*
X175527252Y-102097000D01*
X175521204Y-102109095D01*
X175509109Y-102115142D01*
X175497014Y-102115142D01*
X175484919Y-102109095D01*
X175478871Y-102097000D01*
X175478871Y-102066761D01*
X175472823Y-102054666D01*
X175442585Y-102012333D02*
X175442585Y-101963952D01*
X175400252Y-101994190D02*
X175509109Y-101994190D01*
X175521204Y-101988142D01*
X175527252Y-101976047D01*
X175527252Y-101963952D01*
X175521204Y-101873238D02*
X175527252Y-101885333D01*
X175527252Y-101909523D01*
X175521204Y-101921619D01*
X175509109Y-101927666D01*
X175460728Y-101927666D01*
X175448633Y-101921619D01*
X175442585Y-101909523D01*
X175442585Y-101885333D01*
X175448633Y-101873238D01*
X175460728Y-101867190D01*
X175472823Y-101867190D01*
X175484919Y-101927666D01*
X175527252Y-101758333D02*
X175400252Y-101758333D01*
X175521204Y-101758333D02*
X175527252Y-101770428D01*
X175527252Y-101794619D01*
X175521204Y-101806714D01*
X175515157Y-101812761D01*
X175503061Y-101818809D01*
X175466776Y-101818809D01*
X175454680Y-101812761D01*
X175448633Y-101806714D01*
X175442585Y-101794619D01*
X175442585Y-101770428D01*
X175448633Y-101758333D01*
X175527252Y-101601095D02*
X175400252Y-101601095D01*
X175400252Y-101570857D01*
X175406300Y-101552714D01*
X175418395Y-101540619D01*
X175430490Y-101534571D01*
X175454680Y-101528523D01*
X175472823Y-101528523D01*
X175497014Y-101534571D01*
X175509109Y-101540619D01*
X175521204Y-101552714D01*
X175527252Y-101570857D01*
X175527252Y-101601095D01*
X175521204Y-101425714D02*
X175527252Y-101437809D01*
X175527252Y-101462000D01*
X175521204Y-101474095D01*
X175509109Y-101480142D01*
X175460728Y-101480142D01*
X175448633Y-101474095D01*
X175442585Y-101462000D01*
X175442585Y-101437809D01*
X175448633Y-101425714D01*
X175460728Y-101419666D01*
X175472823Y-101419666D01*
X175484919Y-101480142D01*
X175521204Y-101371285D02*
X175527252Y-101359190D01*
X175527252Y-101335000D01*
X175521204Y-101322904D01*
X175509109Y-101316857D01*
X175503061Y-101316857D01*
X175490966Y-101322904D01*
X175484919Y-101335000D01*
X175484919Y-101353142D01*
X175478871Y-101365238D01*
X175466776Y-101371285D01*
X175460728Y-101371285D01*
X175448633Y-101365238D01*
X175442585Y-101353142D01*
X175442585Y-101335000D01*
X175448633Y-101322904D01*
X175527252Y-101262428D02*
X175442585Y-101262428D01*
X175400252Y-101262428D02*
X175406300Y-101268476D01*
X175412347Y-101262428D01*
X175406300Y-101256380D01*
X175400252Y-101262428D01*
X175412347Y-101262428D01*
X175442585Y-101147523D02*
X175545395Y-101147523D01*
X175557490Y-101153571D01*
X175563538Y-101159619D01*
X175569585Y-101171714D01*
X175569585Y-101189857D01*
X175563538Y-101201952D01*
X175521204Y-101147523D02*
X175527252Y-101159619D01*
X175527252Y-101183809D01*
X175521204Y-101195904D01*
X175515157Y-101201952D01*
X175503061Y-101208000D01*
X175466776Y-101208000D01*
X175454680Y-101201952D01*
X175448633Y-101195904D01*
X175442585Y-101183809D01*
X175442585Y-101159619D01*
X175448633Y-101147523D01*
X175442585Y-101087047D02*
X175527252Y-101087047D01*
X175454680Y-101087047D02*
X175448633Y-101081000D01*
X175442585Y-101068904D01*
X175442585Y-101050761D01*
X175448633Y-101038666D01*
X175460728Y-101032619D01*
X175527252Y-101032619D01*
X175521204Y-100978190D02*
X175527252Y-100966095D01*
X175527252Y-100941904D01*
X175521204Y-100929809D01*
X175509109Y-100923761D01*
X175503061Y-100923761D01*
X175490966Y-100929809D01*
X175484919Y-100941904D01*
X175484919Y-100960047D01*
X175478871Y-100972142D01*
X175466776Y-100978190D01*
X175460728Y-100978190D01*
X175448633Y-100972142D01*
X175442585Y-100960047D01*
X175442585Y-100941904D01*
X175448633Y-100929809D01*
X175515157Y-100869333D02*
X175521204Y-100863285D01*
X175527252Y-100869333D01*
X175521204Y-100875380D01*
X175515157Y-100869333D01*
X175527252Y-100869333D01*
X175490966Y-100718142D02*
X175490966Y-100657666D01*
X175527252Y-100730238D02*
X175400252Y-100687904D01*
X175527252Y-100645571D01*
X175527252Y-100585095D02*
X175521204Y-100597190D01*
X175509109Y-100603238D01*
X175400252Y-100603238D01*
X175527252Y-100518571D02*
X175521204Y-100530666D01*
X175509109Y-100536714D01*
X175400252Y-100536714D01*
X175527252Y-100373428D02*
X175442585Y-100373428D01*
X175466776Y-100373428D02*
X175454680Y-100367380D01*
X175448633Y-100361333D01*
X175442585Y-100349238D01*
X175442585Y-100337142D01*
X175527252Y-100294809D02*
X175442585Y-100294809D01*
X175400252Y-100294809D02*
X175406300Y-100300857D01*
X175412347Y-100294809D01*
X175406300Y-100288761D01*
X175400252Y-100294809D01*
X175412347Y-100294809D01*
X175442585Y-100179904D02*
X175545395Y-100179904D01*
X175557490Y-100185952D01*
X175563538Y-100192000D01*
X175569585Y-100204095D01*
X175569585Y-100222238D01*
X175563538Y-100234333D01*
X175521204Y-100179904D02*
X175527252Y-100192000D01*
X175527252Y-100216190D01*
X175521204Y-100228285D01*
X175515157Y-100234333D01*
X175503061Y-100240380D01*
X175466776Y-100240380D01*
X175454680Y-100234333D01*
X175448633Y-100228285D01*
X175442585Y-100216190D01*
X175442585Y-100192000D01*
X175448633Y-100179904D01*
X175527252Y-100119428D02*
X175400252Y-100119428D01*
X175527252Y-100065000D02*
X175460728Y-100065000D01*
X175448633Y-100071047D01*
X175442585Y-100083142D01*
X175442585Y-100101285D01*
X175448633Y-100113380D01*
X175454680Y-100119428D01*
X175442585Y-100022666D02*
X175442585Y-99974285D01*
X175400252Y-100004523D02*
X175509109Y-100004523D01*
X175521204Y-99998476D01*
X175527252Y-99986380D01*
X175527252Y-99974285D01*
X175521204Y-99938000D02*
X175527252Y-99925904D01*
X175527252Y-99901714D01*
X175521204Y-99889619D01*
X175509109Y-99883571D01*
X175503061Y-99883571D01*
X175490966Y-99889619D01*
X175484919Y-99901714D01*
X175484919Y-99919857D01*
X175478871Y-99931952D01*
X175466776Y-99938000D01*
X175460728Y-99938000D01*
X175448633Y-99931952D01*
X175442585Y-99919857D01*
X175442585Y-99901714D01*
X175448633Y-99889619D01*
X175527252Y-99732380D02*
X175442585Y-99732380D01*
X175466776Y-99732380D02*
X175454680Y-99726333D01*
X175448633Y-99720285D01*
X175442585Y-99708190D01*
X175442585Y-99696095D01*
X175521204Y-99605380D02*
X175527252Y-99617476D01*
X175527252Y-99641666D01*
X175521204Y-99653761D01*
X175509109Y-99659809D01*
X175460728Y-99659809D01*
X175448633Y-99653761D01*
X175442585Y-99641666D01*
X175442585Y-99617476D01*
X175448633Y-99605380D01*
X175460728Y-99599333D01*
X175472823Y-99599333D01*
X175484919Y-99659809D01*
X175521204Y-99550952D02*
X175527252Y-99538857D01*
X175527252Y-99514666D01*
X175521204Y-99502571D01*
X175509109Y-99496523D01*
X175503061Y-99496523D01*
X175490966Y-99502571D01*
X175484919Y-99514666D01*
X175484919Y-99532809D01*
X175478871Y-99544904D01*
X175466776Y-99550952D01*
X175460728Y-99550952D01*
X175448633Y-99544904D01*
X175442585Y-99532809D01*
X175442585Y-99514666D01*
X175448633Y-99502571D01*
X175521204Y-99393714D02*
X175527252Y-99405809D01*
X175527252Y-99430000D01*
X175521204Y-99442095D01*
X175509109Y-99448142D01*
X175460728Y-99448142D01*
X175448633Y-99442095D01*
X175442585Y-99430000D01*
X175442585Y-99405809D01*
X175448633Y-99393714D01*
X175460728Y-99387666D01*
X175472823Y-99387666D01*
X175484919Y-99448142D01*
X175527252Y-99333238D02*
X175442585Y-99333238D01*
X175466776Y-99333238D02*
X175454680Y-99327190D01*
X175448633Y-99321142D01*
X175442585Y-99309047D01*
X175442585Y-99296952D01*
X175442585Y-99266714D02*
X175527252Y-99236476D01*
X175442585Y-99206238D01*
X175521204Y-99109476D02*
X175527252Y-99121571D01*
X175527252Y-99145761D01*
X175521204Y-99157857D01*
X175509109Y-99163904D01*
X175460728Y-99163904D01*
X175448633Y-99157857D01*
X175442585Y-99145761D01*
X175442585Y-99121571D01*
X175448633Y-99109476D01*
X175460728Y-99103428D01*
X175472823Y-99103428D01*
X175484919Y-99163904D01*
X175527252Y-98994571D02*
X175400252Y-98994571D01*
X175521204Y-98994571D02*
X175527252Y-99006666D01*
X175527252Y-99030857D01*
X175521204Y-99042952D01*
X175515157Y-99049000D01*
X175503061Y-99055047D01*
X175466776Y-99055047D01*
X175454680Y-99049000D01*
X175448633Y-99042952D01*
X175442585Y-99030857D01*
X175442585Y-99006666D01*
X175448633Y-98994571D01*
X175515157Y-98934095D02*
X175521204Y-98928047D01*
X175527252Y-98934095D01*
X175521204Y-98940142D01*
X175515157Y-98934095D01*
X175527252Y-98934095D01*
%TD*%
M02*
