%TF.GenerationSoftware,KiCad,Pcbnew,(6.0.5)*%
%TF.CreationDate,2022-06-18T16:05:52-05:00*%
%TF.ProjectId,PB_8,50425f38-2e6b-4696-9361-645f70636258,v1*%
%TF.SameCoordinates,Original*%
%TF.FileFunction,Soldermask,Bot*%
%TF.FilePolarity,Negative*%
%FSLAX46Y46*%
G04 Gerber Fmt 4.6, Leading zero omitted, Abs format (unit mm)*
G04 Created by KiCad (PCBNEW (6.0.5)) date 2022-06-18 16:05:52*
%MOMM*%
%LPD*%
G01*
G04 APERTURE LIST*
G04 Aperture macros list*
%AMRoundRect*
0 Rectangle with rounded corners*
0 $1 Rounding radius*
0 $2 $3 $4 $5 $6 $7 $8 $9 X,Y pos of 4 corners*
0 Add a 4 corners polygon primitive as box body*
4,1,4,$2,$3,$4,$5,$6,$7,$8,$9,$2,$3,0*
0 Add four circle primitives for the rounded corners*
1,1,$1+$1,$2,$3*
1,1,$1+$1,$4,$5*
1,1,$1+$1,$6,$7*
1,1,$1+$1,$8,$9*
0 Add four rect primitives between the rounded corners*
20,1,$1+$1,$2,$3,$4,$5,0*
20,1,$1+$1,$4,$5,$6,$7,0*
20,1,$1+$1,$6,$7,$8,$9,0*
20,1,$1+$1,$8,$9,$2,$3,0*%
G04 Aperture macros list end*
%ADD10RoundRect,0.051000X-0.850000X0.850000X-0.850000X-0.850000X0.850000X-0.850000X0.850000X0.850000X0*%
%ADD11O,1.802000X1.802000*%
%ADD12C,2.577000*%
%ADD13RoundRect,0.051000X-0.850000X-0.850000X0.850000X-0.850000X0.850000X0.850000X-0.850000X0.850000X0*%
%ADD14RoundRect,0.051000X0.650000X-0.650000X0.650000X0.650000X-0.650000X0.650000X-0.650000X-0.650000X0*%
%ADD15C,1.402000*%
%ADD16O,2.002000X3.002000*%
%ADD17O,3.002000X2.002000*%
%ADD18RoundRect,0.051000X1.000000X1.000000X-1.000000X1.000000X-1.000000X-1.000000X1.000000X-1.000000X0*%
%ADD19C,2.102000*%
%ADD20RoundRect,0.051000X-0.900000X0.900000X-0.900000X-0.900000X0.900000X-0.900000X0.900000X0.900000X0*%
%ADD21C,1.902000*%
%ADD22C,1.626000*%
%ADD23RoundRect,0.051000X-0.704000X0.704000X-0.704000X-0.704000X0.704000X-0.704000X0.704000X0.704000X0*%
%ADD24C,1.510000*%
%ADD25RoundRect,0.051000X0.850000X-0.850000X0.850000X0.850000X-0.850000X0.850000X-0.850000X-0.850000X0*%
%ADD26RoundRect,0.051000X0.700000X0.700000X-0.700000X0.700000X-0.700000X-0.700000X0.700000X-0.700000X0*%
%ADD27C,1.502000*%
%ADD28RoundRect,0.051000X-2.000000X-2.000000X2.000000X-2.000000X2.000000X2.000000X-2.000000X2.000000X0*%
%ADD29C,4.102000*%
%ADD30C,2.006000*%
%ADD31RoundRect,0.301000X-0.600000X-0.725000X0.600000X-0.725000X0.600000X0.725000X-0.600000X0.725000X0*%
%ADD32O,1.802000X2.052000*%
%ADD33RoundRect,0.301000X-0.650000X-1.550000X0.650000X-1.550000X0.650000X1.550000X-0.650000X1.550000X0*%
%ADD34O,1.902000X3.702000*%
G04 APERTURE END LIST*
D10*
%TO.C,J23*%
X201178800Y-107202600D03*
D11*
X198638800Y-107202600D03*
X196098800Y-107202600D03*
%TD*%
D12*
%TO.C,F18*%
X211426000Y-134802600D03*
X211426000Y-131102600D03*
X211426000Y-126602600D03*
X211426000Y-122902600D03*
%TD*%
D13*
%TO.C,J29*%
X212278800Y-105813000D03*
D11*
X212278800Y-108353000D03*
X212278800Y-110893000D03*
%TD*%
D14*
%TO.C,J19*%
X197202600Y-65020700D03*
D15*
X197202600Y-62520700D03*
X197202600Y-60520700D03*
X197202600Y-58020700D03*
D16*
X192422600Y-61520700D03*
D17*
X196602600Y-68090700D03*
X196602600Y-54950700D03*
%TD*%
D18*
%TO.C,C1*%
X201678800Y-98735800D03*
D19*
X196678800Y-98735800D03*
%TD*%
D20*
%TO.C,U1*%
X192256800Y-89317600D03*
D21*
X192256800Y-86777600D03*
X192256800Y-84237600D03*
D22*
X210036800Y-82967600D03*
X210036800Y-85507600D03*
X210036800Y-88047600D03*
X210036800Y-90587600D03*
X206226800Y-82735660D03*
X206226800Y-85430600D03*
X206226800Y-88124600D03*
X206226800Y-90819540D03*
%TD*%
D23*
%TO.C,U3*%
X179000400Y-65274600D03*
D24*
X179000400Y-67814600D03*
X176460400Y-65274600D03*
X176460400Y-67814600D03*
X173920400Y-65274600D03*
X173920400Y-67814600D03*
X171380400Y-65274600D03*
X171380400Y-67814600D03*
X168840400Y-65274600D03*
X168840400Y-67814600D03*
X166300400Y-65274600D03*
X166300400Y-67814600D03*
X163760400Y-65274600D03*
X163760400Y-67814600D03*
X161220400Y-65274600D03*
X161220400Y-67814600D03*
X158680400Y-65274600D03*
X158680400Y-67814600D03*
X156140400Y-65274600D03*
X156140400Y-67814600D03*
X153600400Y-65274600D03*
X153600400Y-67814600D03*
X151060400Y-65274600D03*
X151060400Y-67814600D03*
X148520400Y-65274600D03*
X148520400Y-67814600D03*
X145980400Y-65274600D03*
X145980400Y-67814600D03*
X143440400Y-65274600D03*
X143440400Y-67814600D03*
X140900400Y-65274600D03*
X140900400Y-67814600D03*
X138360400Y-65274600D03*
X138360400Y-67814600D03*
X135820400Y-65274600D03*
X135820400Y-67814600D03*
D23*
X179000400Y-90674600D03*
D24*
X179000400Y-93214600D03*
X176460400Y-90674600D03*
X176460400Y-93214600D03*
X173920400Y-90674600D03*
X173920400Y-93214600D03*
X171380400Y-90674600D03*
X171380400Y-93214600D03*
X168840400Y-90674600D03*
X168840400Y-93214600D03*
X166300400Y-90674600D03*
X166300400Y-93214600D03*
X163760400Y-90674600D03*
X163760400Y-93214600D03*
X161220400Y-90674600D03*
X161220400Y-93214600D03*
X158680400Y-90674600D03*
X158680400Y-93214600D03*
X156140400Y-90674600D03*
X156140400Y-93214600D03*
X153600400Y-90674600D03*
X153600400Y-93214600D03*
X151060400Y-90674600D03*
X151060400Y-93214600D03*
X148520400Y-90674600D03*
X148520400Y-93214600D03*
X145980400Y-90674600D03*
X145980400Y-93214600D03*
X143440400Y-90674600D03*
X143440400Y-93214600D03*
X140900400Y-90674600D03*
X140900400Y-93214600D03*
X138360400Y-90674600D03*
X138360400Y-93214600D03*
X135820400Y-90674600D03*
X135820400Y-93214600D03*
%TD*%
D10*
%TO.C,J25*%
X182387700Y-55625800D03*
D11*
X179847700Y-55625800D03*
X177307700Y-55625800D03*
X174767700Y-55625800D03*
X172227700Y-55625800D03*
%TD*%
D25*
%TO.C,J26*%
X146197700Y-55625800D03*
D11*
X148737700Y-55625800D03*
X151277700Y-55625800D03*
X153817700Y-55625800D03*
%TD*%
D26*
%TO.C,SW3*%
X163398800Y-58272600D03*
D27*
X160898800Y-58272600D03*
X158398800Y-58272600D03*
X163398800Y-54972600D03*
X160898800Y-54972600D03*
X158398800Y-54972600D03*
%TD*%
D28*
%TO.C,J18*%
X198878800Y-144752600D03*
D29*
X208378800Y-144752600D03*
%TD*%
D30*
%TO.C,J28*%
X210229259Y-99458160D03*
X210229259Y-95648160D03*
%TD*%
D31*
%TO.C,J27*%
X203760300Y-55861400D03*
D32*
X206260300Y-55861400D03*
X208760300Y-55861400D03*
X211260300Y-55861400D03*
%TD*%
D12*
%TO.C,F7*%
X184172100Y-150363600D03*
X184172100Y-146663600D03*
X184172100Y-142163600D03*
X184172100Y-138463600D03*
%TD*%
D33*
%TO.C,J6*%
X179100000Y-129600000D03*
D34*
X182600000Y-129600000D03*
X186100000Y-129600000D03*
%TD*%
D33*
%TO.C,J7*%
X194100000Y-116600000D03*
D34*
X197600000Y-116600000D03*
X201100000Y-116600000D03*
%TD*%
D33*
%TO.C,J3*%
X164100000Y-116600000D03*
D34*
X167600000Y-116600000D03*
X171100000Y-116600000D03*
%TD*%
D12*
%TO.C,F4*%
X165252100Y-150294800D03*
X165252100Y-146594800D03*
X165252100Y-142094800D03*
X165252100Y-138394800D03*
%TD*%
D33*
%TO.C,J2*%
X149100000Y-129600000D03*
D34*
X152600000Y-129600000D03*
X156100000Y-129600000D03*
%TD*%
D33*
%TO.C,J4*%
X164100000Y-129600000D03*
D34*
X167600000Y-129600000D03*
X171100000Y-129600000D03*
%TD*%
D12*
%TO.C,F5*%
X171558800Y-150363600D03*
X171558800Y-146663600D03*
X171558800Y-142163600D03*
X171558800Y-138463600D03*
%TD*%
D33*
%TO.C,J1*%
X149100000Y-116600000D03*
D34*
X152600000Y-116600000D03*
X156100000Y-116600000D03*
%TD*%
D12*
%TO.C,F8*%
X190478800Y-150363600D03*
X190478800Y-146663600D03*
X190478800Y-142163600D03*
X190478800Y-138463600D03*
%TD*%
%TO.C,F6*%
X177865500Y-150363600D03*
X177865500Y-146663600D03*
X177865500Y-142163600D03*
X177865500Y-138463600D03*
%TD*%
%TO.C,F3*%
X158945500Y-150298600D03*
X158945500Y-146598600D03*
X158945500Y-142098600D03*
X158945500Y-138398600D03*
%TD*%
D33*
%TO.C,J5*%
X179100000Y-116600000D03*
D34*
X182600000Y-116600000D03*
X186100000Y-116600000D03*
%TD*%
D12*
%TO.C,F2*%
X152638800Y-150298600D03*
X152638800Y-146598600D03*
X152638800Y-142098600D03*
X152638800Y-138398600D03*
%TD*%
D33*
%TO.C,J8*%
X194100000Y-129600000D03*
D34*
X197600000Y-129600000D03*
X201100000Y-129600000D03*
%TD*%
D12*
%TO.C,F1*%
X146398800Y-150402600D03*
X146398800Y-146702600D03*
X146398800Y-142202600D03*
X146398800Y-138502600D03*
%TD*%
M02*
